<?xml version="1.0" encoding="utf-8"?>
<!-- Generator: Adobe Illustrator 24.3.0, SVG Export Plug-In . SVG Version: 6.00 Build 0)  -->
<svg version="1.1" id="圖層_1" xmlns="http://www.w3.org/2000/svg" xmlns:xlink="http://www.w3.org/1999/xlink" x="0px" y="0px"
	 viewBox="0 0 1077 184" style="enable-background:new 0 0 1077 184;" xml:space="preserve">
<style type="text/css">
	.st0{fill:#FFFFFF;}
</style>
<g>
	<path class="st0" d="M857,1c-0.8,5.9-3.6,11-5.7,16.4c-21.2,54.3-42.5,108.6-63.7,162.8c-0.6,1.5-1,3.2-1.6,4.7c-6,0-12,0-18,0
		c-7.8-20.2-15.5-40.5-23.8-62c-8.4,21.6-16.3,41.8-24.2,62c-5.7,0-11.3,0-17,0c-0.8-1.7-1.6-3.3-2.3-5
		c-17.4-44.3-34.7-88.6-52-132.9c-6-15.3-12.5-30.5-17.7-46.1c4,0,8,0,12,0c1.4,3.9,2.8,7.8,4.3,11.7c20.1,51.3,40.2,102.7,60.3,154
		c0.9,2.3,0.9,6.3,3.8,6.4c2.5,0,2.5-3.9,3.4-6.1c7.1-17.8,13.9-35.7,21.1-53.4c1.6-4,1.6-7.4,0-11.4
		c-10.6-26.8-21.2-53.6-31.5-80.5c-2.6-6.8-6.1-13.3-7.4-20.6c3.7,0,7.3,0,11,0c0.8,1.8,1.8,3.6,2.5,5.4
		c7.9,20.1,15.8,40.2,23.7,60.4c3.1,8,6.3,16,9.9,25.4C756.4,60.9,768.2,30.9,780,1c3.7,0,7.3,0,11,0c0.3,3.3-1.4,6.1-2.6,9
		c-12.2,31.2-24.4,62.4-36.6,93.6c-0.8,2-1.8,3.9-0.8,6.2c8,20.3,15.9,40.6,23.9,61c0.4,1,0.6,2.5,2.1,2.4c1.5,0,1.6-1.5,2.1-2.5
		c0.6-1.2,1-2.5,1.5-3.7c15.1-38.5,30-77,45.2-115.4c6.7-16.9,12.7-34,20.2-50.6C849.7,1,853.3,1,857,1z"/>
	<path class="st0" d="M526,185c1-7.4,4.6-13.9,7.2-20.6C554.4,109.9,575.7,55.4,597,1c5.7,0,11.3,0,17,0c0.8,1.6,1.7,3.3,2.3,5
		c19.8,50.5,39.6,101,59.3,151.5c3.6,9.1,7.7,18,10.4,27.5c-4,0-8,0-12,0c-8.9-23.1-17.8-46.3-26.9-69.4c-2.1-5.4-2.4-12.5-7.2-15.5
		c-4.5-2.9-11-0.8-16.7-0.9c-14-0.1-28-0.2-42,0c-4.5,0.1-4.9-1.3-3.5-5.3c1.6-4.7,4.1-6.4,9.1-6.3c14.6,0.3,29.3,0,44,0.2
		c4.2,0,5.3-1,3.6-5.2c-8.8-22-17.3-44-25.9-66c-0.6-1.5-0.7-3.8-2.7-3.7c-2,0-2.1,2.3-2.6,3.8c-21,53.5-41.9,107-62.8,160.4
		c-1,2.6-2.2,5.2-3.3,7.8C533.3,185,529.7,185,526,185z"/>
	<path class="st0" d="M232,185c-10.6-27-21.3-53.9-31.8-80.9c-1.5-3.8-3.4-5-7.3-4.9c-17.5,0.2-35,0.1-52.5,0c-2,0-5,1.4-5.9-1.8
		c-0.7-2.7,3.5-9.1,5.9-9.4c1.5-0.2,3-0.1,4.5-0.1c14.7,0,29.3-0.1,44,0c3.9,0,4.6-1.1,3.1-4.7c-8.8-22.3-17.5-44.7-26.3-67
		c-0.5-1.3-0.6-3.5-2.3-3.5c-2,0-2.1,2.3-2.7,3.7c-14.8,37.7-29.6,75.3-44.3,113c-7.2,18.5-14.3,37-21.4,55.4c-4,0-8,0-12,0
		c5.9-15.4,11.7-30.8,17.7-46.1c17.2-44.2,34.5-88.3,51.8-132.5c0.7-1.9,1.6-3.6,2.5-5.4c5.7,0,11.3,0,17,0
		c22.6,57.9,45.3,115.7,67.9,173.6c1.3,3.4,3.3,6.6,3.1,10.4C239.3,185,235.7,185,232,185z"/>
	<path class="st0" d="M373,1c10.5,3.6,18.9,9.6,23.7,20c1.8,3.8,2.9,7.8,3.3,12c0.3,3,0.1,5.9-4,5.9c-3.4,0-6.8,0.8-7.4-4.7
		c-1.8-16-15.6-25.5-30.3-21.4c-9.9,2.8-16.7,11-17.2,20.9c-0.6,10.9,4.6,20,14.8,23.6c10.2,3.6,20.7,6.2,31,9.6
		c24.6,8.2,41.1,30.9,41.2,56.3c0.2,30.5-23.8,57.9-53.4,60.9c-32.3,3.3-61-18-66.9-49.4c-2.4-12.7-0.6-24.8,4.6-36.6
		c1.2-2.8,2.4-5.3,6.2-3c3.1,1.8,6.6,2.4,4.1,7.9c-13.8,30.8,5.4,65.3,38.4,69.6c24.6,3.2,48-12.7,54-36.8
		c6.2-24.9-6.5-49.1-30.8-57.7c-9.6-3.4-19.5-5.8-29.1-8.9c-25.5-8.2-33.9-36.9-16.8-57C343.4,6.5,350,3.4,357,1
		C362.3,1,367.7,1,373,1z"/>
	<path class="st0" d="M514,1c0,59.4,0,118.8,0,178.2c0,2,0.1,4-1,5.8c-3.3,0-6.7,0-10,0c-0.1-13.3-0.2-26.6-0.3-40
		c0-13.8-0.1-27.6,0.1-41.5c0.1-4.2-1.4-5.5-5.5-5.4c-11.8,0.2-23.6-0.1-35.5,0.1c-4.3,0.1-6-1.3-5.9-5.7c0.1-4.3,1.7-5.9,6-5.8
		c11.8,0.2,23.6-0.1,35.5,0.1c4.2,0.1,5.4-1.5,5.4-5.5c-0.1-24.6-0.1-49.3-0.1-73.9c0-2.2,0.2-4.3,0.3-6.5C506.7,1,510.3,1,514,1z"
		/>
	<path class="st0" d="M967,1c7.4,11.7,16.2,22.3,24.3,33.5c8.9,12.1,17.9,24,26.9,36c1.6,2.2,2.9,4.3,2.9,7.2
		c-0.1,35.8-0.1,71.6-0.2,107.3c-3.7,0-7.3,0-11,0c-0.1-32.4-0.3-64.9-0.1-97.3c0-6.6-1.5-12-5.6-17.3
		c-16.6-21.6-32.8-43.6-49.2-65.5c-0.9-1.2-2-2.3-2.2-3.9C957.7,1,962.3,1,967,1z"/>
	<path class="st0" d="M452,1c0,58.6,0,117.1,0,175.7c0,2.8,0.4,5.7-1,8.3c-3.3,0-6.7,0-10,0c-1.3-2.7-0.9-5.5-0.9-8.4
		c0-58.5,0-117.1-0.1-175.6C444,1,448,1,452,1z"/>
	<path class="st0" d="M12,1c0.1,1.3,0.2,2.7,0.2,4c0,52.6,0,105.3,0.1,157.9c0,4.9-1.6,6.7-6.3,6.2c-1.6-0.2-3.3-0.1-5-0.1
		C1,114.7,1.1,60.3,0.9,6c0-4.3,1-5.7,5.1-5C8,1.3,10,1,12,1z"/>
	<path class="st0" d="M900,185c-0.1-1.5-0.2-3-0.2-4.5c0-52.4,0-104.9-0.1-157.3c0-4.2,0.8-6.5,5.7-6.4c4.4,0.1,5.8,1.6,5.8,5.9
		C911,76.8,911,130.9,911,185C907.3,185,903.7,185,900,185z"/>
	<path class="st0" d="M1078,3c-1.9,1.1-3.1,3-4.4,4.7c-14.8,19.8-29.6,39.7-44.5,59.5c-1.2,1.5-1.8,5.1-4.9,3.3
		c-3.8-2.2-5.5-7.8-3.5-10.5c8.2-11.1,16.6-22,24.7-33.2c6.2-8.6,13.2-16.7,18.7-25.8c4.2,0,8.3,0.2,12.5-0.1
		C1078.6,0.8,1077.9,2,1078,3z"/>
	<path class="st0" d="M942,1c0.5,13.9,0.2,11.2-10.9,11.3c-18.1,0.2-36.3,0-54.4,0c-8.2,0-8.2,0-8-8.4c0-1,0.2-2,0.3-3
		C893.3,1,917.7,1,942,1z"/>
	<path class="st0" d="M1,174c22.3-0.1,44.6-0.2,66.9-0.3c2.8,0,3.9,1.4,4,3.9c0.1,2.5,0.2,5-0.9,7.4c-22.2,0-44.4-0.1-66.6,0.1
		c-3.2,0-3.8-0.9-3.5-3.7C1.2,179,1,176.5,1,174z"/>
</g>
</svg>
